<svg xmlns="http://www.w3.org/2000/svg" viewBox="0 0 512 512"><rect width="512" height="512" fill="#CFE4D8"/>
<circle cx="256" cy="300" r="108" fill="none" stroke="#6B3820" stroke-width="96"/>
<path d="M196 330 A66 66 0 0 0 300 352" fill="none" stroke="#E0A25E" stroke-width="16" stroke-linecap="round"/>
<path d="M150 330 Q148 392 200 414" fill="none" stroke="#6B3820" stroke-width="34" stroke-linecap="round"/>
<ellipse cx="352" cy="214" rx="26" ry="38" transform="rotate(-25 352 214)" fill="#5A2E1A"/>
<g transform="translate(244 148) rotate(8)">
 <ellipse cx="0" cy="0" rx="64" ry="52" fill="#6B3820"/>
 <ellipse cx="54" cy="10" rx="46" ry="30" fill="#E0A25E"/>
 <ellipse cx="94" cy="6" rx="16" ry="13" fill="#2B1710"/>
 <ellipse cx="90" cy="2" rx="5" ry="3" fill="#6a5a52"/>
 <path d="M10 -8 q14 12 30 0" fill="none" stroke="#1E0F0A" stroke-width="6.5" stroke-linecap="round"/>
 <ellipse cx="25" cy="-26" rx="11" ry="8" fill="#E0A25E"/>
 <path d="M-36 -34 C-92 -16 -98 62 -62 96 C-30 82 -16 40 -14 -6 Z" fill="#4A2315"/>
</g>
</svg>
